<svg width="252" height="24" viewBox="0 0 252 24" fill="none" xmlns="http://www.w3.org/2000/svg">
<path d="M5.5 18H0.113636V0.545454H5.73864C7.43182 0.545454 8.88068 0.894886 10.0852 1.59375C11.2898 2.28693 12.2131 3.28409 12.8551 4.58523C13.4972 5.88068 13.8182 7.43182 13.8182 9.23864C13.8182 11.0568 13.4943 12.6222 12.8466 13.9347C12.1989 15.2415 11.2557 16.2472 10.017 16.9517C8.77841 17.6506 7.27273 18 5.5 18ZM2.22727 16.125H5.36364C6.80682 16.125 8.00284 15.8466 8.9517 15.2898C9.90057 14.733 10.608 13.9403 11.0739 12.9119C11.5398 11.8835 11.7727 10.6591 11.7727 9.23864C11.7727 7.82955 11.5426 6.61648 11.0824 5.59943C10.6222 4.5767 9.93466 3.79261 9.01989 3.24716C8.10511 2.69602 6.96591 2.42045 5.60227 2.42045H2.22727V16.125ZM22.5795 18.2727C21.3182 18.2727 20.2301 17.9943 19.3153 17.4375C18.4062 16.875 17.7045 16.0909 17.2102 15.0852C16.7216 14.0739 16.4773 12.8977 16.4773 11.5568C16.4773 10.2159 16.7216 9.03409 17.2102 8.01136C17.7045 6.98295 18.392 6.18182 19.2727 5.60795C20.1591 5.02841 21.1932 4.73864 22.375 4.73864C23.0568 4.73864 23.7301 4.85227 24.3949 5.07954C25.0597 5.30682 25.6648 5.67614 26.2102 6.1875C26.7557 6.69318 27.1903 7.36364 27.5142 8.19886C27.8381 9.03409 28 10.0625 28 11.2841V12.1364H17.9091V10.3977H25.9545C25.9545 9.65909 25.8068 9 25.5114 8.42045C25.2216 7.84091 24.8068 7.38352 24.267 7.0483C23.733 6.71307 23.1023 6.54545 22.375 6.54545C21.5739 6.54545 20.8807 6.74432 20.2955 7.14205C19.7159 7.53409 19.2699 8.04545 18.9574 8.67614C18.6449 9.30682 18.4886 9.98295 18.4886 10.7045V11.8636C18.4886 12.8523 18.6591 13.6903 19 14.3778C19.3466 15.0597 19.8267 15.5795 20.4403 15.9375C21.054 16.2898 21.767 16.4659 22.5795 16.4659C23.108 16.4659 23.5852 16.392 24.0114 16.2443C24.4432 16.0909 24.8153 15.8636 25.1278 15.5625C25.4403 15.2557 25.6818 14.875 25.8523 14.4205L27.7955 14.9659C27.5909 15.625 27.2472 16.2045 26.7642 16.7045C26.2813 17.1989 25.6847 17.5852 24.9744 17.8636C24.2642 18.1364 23.4659 18.2727 22.5795 18.2727ZM31.0597 22.9091V4.90909H33.0028V6.98864H33.2415C33.3892 6.76136 33.5938 6.47159 33.8551 6.11932C34.1222 5.76136 34.5028 5.44318 34.9972 5.16477C35.4972 4.88068 36.1733 4.73864 37.0256 4.73864C38.1278 4.73864 39.0994 5.0142 39.9403 5.56534C40.7813 6.11648 41.4375 6.89773 41.9091 7.90909C42.3807 8.92045 42.6165 10.1136 42.6165 11.4886C42.6165 12.875 42.3807 14.0767 41.9091 15.0938C41.4375 16.1051 40.7841 16.8892 39.9489 17.446C39.1136 17.9972 38.1506 18.2727 37.0597 18.2727C36.2188 18.2727 35.5455 18.1335 35.0398 17.8551C34.5341 17.571 34.1449 17.25 33.8722 16.892C33.5994 16.5284 33.3892 16.2273 33.2415 15.9886H33.071V22.9091H31.0597ZM33.0369 11.4545C33.0369 12.4432 33.1818 13.3153 33.4716 14.071C33.7614 14.821 34.1847 15.4091 34.7415 15.8352C35.2983 16.2557 35.9801 16.4659 36.7869 16.4659C37.6278 16.4659 38.3295 16.2443 38.892 15.8011C39.4602 15.3523 39.8864 14.75 40.1705 13.9943C40.4602 13.233 40.6051 12.3864 40.6051 11.4545C40.6051 10.5341 40.4631 9.70455 40.179 8.96591C39.9006 8.22159 39.4773 7.63352 38.9091 7.2017C38.3466 6.7642 37.6392 6.54545 36.7869 6.54545C35.9688 6.54545 35.2813 6.75284 34.7244 7.16761C34.1676 7.5767 33.7472 8.15057 33.4631 8.8892C33.179 9.62216 33.0369 10.4773 33.0369 11.4545ZM45.6847 18V4.90909H47.6278V6.88636H47.7642C48.0028 6.23864 48.4347 5.71307 49.0597 5.30966C49.6847 4.90625 50.3892 4.70454 51.1733 4.70454C51.321 4.70454 51.5057 4.70739 51.7273 4.71307C51.9489 4.71875 52.1165 4.72727 52.2301 4.73864V6.78409C52.1619 6.76705 52.0057 6.74148 51.7614 6.70739C51.5227 6.66761 51.2699 6.64773 51.0028 6.64773C50.3665 6.64773 49.7983 6.78125 49.2983 7.0483C48.804 7.30966 48.4119 7.6733 48.1222 8.1392C47.8381 8.59943 47.696 9.125 47.696 9.71591V18H45.6847ZM59.7045 18.2727C58.4432 18.2727 57.3551 17.9943 56.4403 17.4375C55.5312 16.875 54.8295 16.0909 54.3352 15.0852C53.8466 14.0739 53.6023 12.8977 53.6023 11.5568C53.6023 10.2159 53.8466 9.03409 54.3352 8.01136C54.8295 6.98295 55.517 6.18182 56.3977 5.60795C57.2841 5.02841 58.3182 4.73864 59.5 4.73864C60.1818 4.73864 60.8551 4.85227 61.5199 5.07954C62.1847 5.30682 62.7898 5.67614 63.3352 6.1875C63.8807 6.69318 64.3153 7.36364 64.6392 8.19886C64.9631 9.03409 65.125 10.0625 65.125 11.2841V12.1364H55.0341V10.3977H63.0795C63.0795 9.65909 62.9318 9 62.6364 8.42045C62.3466 7.84091 61.9318 7.38352 61.392 7.0483C60.858 6.71307 60.2273 6.54545 59.5 6.54545C58.6989 6.54545 58.0057 6.74432 57.4205 7.14205C56.8409 7.53409 56.3949 8.04545 56.0824 8.67614C55.7699 9.30682 55.6136 9.98295 55.6136 10.7045V11.8636C55.6136 12.8523 55.7841 13.6903 56.125 14.3778C56.4716 15.0597 56.9517 15.5795 57.5653 15.9375C58.179 16.2898 58.892 16.4659 59.7045 16.4659C60.233 16.4659 60.7102 16.392 61.1364 16.2443C61.5682 16.0909 61.9403 15.8636 62.2528 15.5625C62.5653 15.2557 62.8068 14.875 62.9773 14.4205L64.9205 14.9659C64.7159 15.625 64.3722 16.2045 63.8892 16.7045C63.4063 17.1989 62.8097 17.5852 62.0994 17.8636C61.3892 18.1364 60.5909 18.2727 59.7045 18.2727ZM68.1847 18V4.90909H70.1278V6.95455H70.2983C70.571 6.25568 71.0114 5.71307 71.6193 5.3267C72.2273 4.93466 72.9574 4.73864 73.8097 4.73864C74.6733 4.73864 75.392 4.93466 75.9659 5.3267C76.5455 5.71307 76.9972 6.25568 77.321 6.95455H77.4574C77.7926 6.27841 78.2955 5.74148 78.9659 5.34375C79.6364 4.94034 80.4403 4.73864 81.3778 4.73864C82.5483 4.73864 83.5057 5.10511 84.25 5.83807C84.9943 6.56534 85.3665 7.69886 85.3665 9.23864V18H83.3551V9.23864C83.3551 8.27273 83.0909 7.58239 82.5625 7.16761C82.0341 6.75284 81.4119 6.54545 80.696 6.54545C79.7756 6.54545 79.0625 6.82386 78.5568 7.38068C78.0511 7.93182 77.7983 8.63068 77.7983 9.47727V18H75.7528V9.03409C75.7528 8.28977 75.5114 7.69034 75.0284 7.2358C74.5455 6.77557 73.9233 6.54545 73.1619 6.54545C72.6392 6.54545 72.1506 6.68466 71.696 6.96307C71.2472 7.24148 70.8835 7.62784 70.6051 8.12216C70.3324 8.6108 70.196 9.17614 70.196 9.81818V18H68.1847ZM96.0668 18V0.545454H102.169C103.385 0.545454 104.388 0.755682 105.178 1.17614C105.967 1.59091 106.555 2.15057 106.942 2.85511C107.328 3.55398 107.521 4.32954 107.521 5.18182C107.521 5.93182 107.388 6.55114 107.121 7.03977C106.859 7.52841 106.513 7.91477 106.081 8.19886C105.655 8.48295 105.192 8.69318 104.692 8.82955V9C105.226 9.03409 105.763 9.22159 106.303 9.5625C106.842 9.90341 107.294 10.392 107.658 11.0284C108.021 11.6648 108.203 12.4432 108.203 13.3636C108.203 14.2386 108.004 15.0256 107.607 15.7244C107.209 16.4233 106.581 16.9773 105.723 17.3864C104.865 17.7955 103.749 18 102.374 18H96.0668ZM98.1804 16.125H102.374C103.754 16.125 104.734 15.858 105.314 15.3239C105.899 14.7841 106.192 14.1307 106.192 13.3636C106.192 12.7727 106.041 12.2273 105.74 11.7273C105.439 11.2216 105.01 10.8182 104.453 10.517C103.896 10.2102 103.237 10.0568 102.476 10.0568H98.1804V16.125ZM98.1804 8.21591H102.101C102.737 8.21591 103.311 8.09091 103.822 7.84091C104.339 7.59091 104.749 7.23864 105.05 6.78409C105.357 6.32955 105.51 5.79545 105.51 5.18182C105.51 4.41477 105.243 3.7642 104.709 3.23011C104.175 2.69034 103.328 2.42045 102.169 2.42045H98.1804V8.21591ZM111.403 18V4.90909H113.415V18H111.403ZM112.426 2.72727C112.034 2.72727 111.696 2.59375 111.412 2.3267C111.134 2.05966 110.994 1.73864 110.994 1.36364C110.994 0.988636 111.134 0.667614 111.412 0.400568C111.696 0.133523 112.034 0 112.426 0C112.818 0 113.153 0.133523 113.432 0.400568C113.716 0.667614 113.858 0.988636 113.858 1.36364C113.858 1.73864 113.716 2.05966 113.432 2.3267C113.153 2.59375 112.818 2.72727 112.426 2.72727ZM119.11 0.545454V18H117.099V0.545454H119.11ZM128.078 23.1818C127.107 23.1818 126.271 23.0568 125.572 22.8068C124.874 22.5625 124.291 22.2386 123.825 21.8352C123.365 21.4375 122.999 21.0114 122.726 20.5568L124.328 19.4318C124.51 19.6705 124.74 19.9432 125.018 20.25C125.297 20.5625 125.678 20.8324 126.161 21.0597C126.649 21.2926 127.288 21.4091 128.078 21.4091C129.135 21.4091 130.007 21.1534 130.695 20.642C131.382 20.1307 131.726 19.3295 131.726 18.2386V15.5795H131.555C131.408 15.8182 131.197 16.1136 130.925 16.4659C130.658 16.8125 130.271 17.1222 129.766 17.3949C129.266 17.6619 128.589 17.7955 127.737 17.7955C126.68 17.7955 125.732 17.5455 124.891 17.0455C124.055 16.5455 123.393 15.8182 122.905 14.8636C122.422 13.9091 122.18 12.75 122.18 11.3864C122.18 10.0455 122.416 8.87784 122.888 7.88352C123.359 6.88352 124.016 6.1108 124.857 5.56534C125.697 5.0142 126.669 4.73864 127.771 4.73864C128.624 4.73864 129.3 4.88068 129.8 5.16477C130.305 5.44318 130.692 5.76136 130.959 6.11932C131.232 6.47159 131.442 6.76136 131.589 6.98864H131.794V4.90909H133.737V18.375C133.737 19.5 133.482 20.4148 132.97 21.1193C132.464 21.8295 131.783 22.3494 130.925 22.679C130.072 23.0142 129.124 23.1818 128.078 23.1818ZM128.01 15.9886C128.817 15.9886 129.499 15.804 130.055 15.4347C130.612 15.0653 131.036 14.5341 131.325 13.8409C131.615 13.1477 131.76 12.3182 131.76 11.3523C131.76 10.4091 131.618 9.5767 131.334 8.85511C131.05 8.13352 130.629 7.56818 130.072 7.15909C129.516 6.75 128.828 6.54545 128.01 6.54545C127.158 6.54545 126.447 6.76136 125.879 7.19318C125.317 7.625 124.893 8.20455 124.609 8.93182C124.331 9.65909 124.192 10.4659 124.192 11.3523C124.192 12.2614 124.334 13.0653 124.618 13.7642C124.908 14.4574 125.334 15.0028 125.896 15.4006C126.464 15.7926 127.169 15.9886 128.01 15.9886ZM137.419 18V4.90909H139.43V18H137.419ZM138.442 2.72727C138.05 2.72727 137.712 2.59375 137.428 2.3267C137.149 2.05966 137.01 1.73864 137.01 1.36364C137.01 0.988636 137.149 0.667614 137.428 0.400568C137.712 0.133523 138.05 0 138.442 0C138.834 0 139.169 0.133523 139.447 0.400568C139.732 0.667614 139.874 0.988636 139.874 1.36364C139.874 1.73864 139.732 2.05966 139.447 2.3267C139.169 2.59375 138.834 2.72727 138.442 2.72727ZM159.683 4.90909C159.58 4.04545 159.165 3.375 158.438 2.89773C157.711 2.42045 156.819 2.18182 155.762 2.18182C154.989 2.18182 154.313 2.30682 153.734 2.55682C153.16 2.80682 152.711 3.15057 152.387 3.58807C152.069 4.02557 151.91 4.52273 151.91 5.07954C151.91 5.54545 152.021 5.94602 152.242 6.28125C152.469 6.6108 152.759 6.88636 153.112 7.10795C153.464 7.32386 153.833 7.50284 154.219 7.64489C154.606 7.78125 154.961 7.89205 155.285 7.97727L157.058 8.45455C157.512 8.57386 158.018 8.73864 158.575 8.94886C159.137 9.15909 159.674 9.44602 160.185 9.80966C160.702 10.1676 161.129 10.6278 161.464 11.1903C161.799 11.7528 161.967 12.4432 161.967 13.2614C161.967 14.2045 161.719 15.0568 161.225 15.8182C160.737 16.5795 160.021 17.1847 159.077 17.6335C158.14 18.0824 157.001 18.3068 155.66 18.3068C154.41 18.3068 153.327 18.1051 152.413 17.7017C151.504 17.2983 150.788 16.7358 150.265 16.0142C149.748 15.2926 149.455 14.4545 149.387 13.5H151.569C151.626 14.1591 151.847 14.7045 152.234 15.1364C152.626 15.5625 153.12 15.8807 153.717 16.0909C154.319 16.2955 154.967 16.3977 155.66 16.3977C156.467 16.3977 157.191 16.267 157.833 16.0057C158.475 15.7386 158.984 15.3693 159.359 14.8977C159.734 14.4205 159.921 13.8636 159.921 13.2273C159.921 12.6477 159.759 12.1761 159.435 11.8125C159.112 11.4489 158.685 11.1534 158.157 10.9261C157.629 10.6989 157.058 10.5 156.444 10.3295L154.296 9.71591C152.933 9.32386 151.853 8.7642 151.058 8.03693C150.262 7.30966 149.864 6.35795 149.864 5.18182C149.864 4.20454 150.129 3.35227 150.657 2.625C151.191 1.89205 151.907 1.32386 152.805 0.920454C153.708 0.511363 154.717 0.306818 155.83 0.306818C156.955 0.306818 157.955 0.508522 158.83 0.911931C159.705 1.30966 160.398 1.85511 160.91 2.54829C161.427 3.24148 161.7 4.02841 161.728 4.90909H159.683ZM170.658 18.2727C169.396 18.2727 168.308 17.9943 167.393 17.4375C166.484 16.875 165.783 16.0909 165.288 15.0852C164.8 14.0739 164.555 12.8977 164.555 11.5568C164.555 10.2159 164.8 9.03409 165.288 8.01136C165.783 6.98295 166.47 6.18182 167.351 5.60795C168.237 5.02841 169.271 4.73864 170.453 4.73864C171.135 4.73864 171.808 4.85227 172.473 5.07954C173.138 5.30682 173.743 5.67614 174.288 6.1875C174.834 6.69318 175.268 7.36364 175.592 8.19886C175.916 9.03409 176.078 10.0625 176.078 11.2841V12.1364H165.987V10.3977H174.033C174.033 9.65909 173.885 9 173.589 8.42045C173.3 7.84091 172.885 7.38352 172.345 7.0483C171.811 6.71307 171.18 6.54545 170.453 6.54545C169.652 6.54545 168.959 6.74432 168.374 7.14205C167.794 7.53409 167.348 8.04545 167.036 8.67614C166.723 9.30682 166.567 9.98295 166.567 10.7045V11.8636C166.567 12.8523 166.737 13.6903 167.078 14.3778C167.425 15.0597 167.905 15.5795 168.518 15.9375C169.132 16.2898 169.845 16.4659 170.658 16.4659C171.186 16.4659 171.663 16.392 172.089 16.2443C172.521 16.0909 172.893 15.8636 173.206 15.5625C173.518 15.2557 173.76 14.875 173.93 14.4205L175.874 14.9659C175.669 15.625 175.325 16.2045 174.842 16.7045C174.359 17.1989 173.763 17.5852 173.053 17.8636C172.342 18.1364 171.544 18.2727 170.658 18.2727ZM179.138 18V4.90909H181.081V6.88636H181.217C181.456 6.23864 181.888 5.71307 182.513 5.30966C183.138 4.90625 183.842 4.70454 184.626 4.70454C184.774 4.70454 184.959 4.70739 185.18 4.71307C185.402 4.71875 185.57 4.72727 185.683 4.73864V6.78409C185.615 6.76705 185.459 6.74148 185.214 6.70739C184.976 6.66761 184.723 6.64773 184.456 6.64773C183.82 6.64773 183.251 6.78125 182.751 7.0483C182.257 7.30966 181.865 7.6733 181.575 8.1392C181.291 8.59943 181.149 9.125 181.149 9.71591V18H179.138ZM199.17 4.90909L194.33 18H192.284L187.443 4.90909H189.625L193.239 15.3409H193.375L196.989 4.90909H199.17ZM201.825 18V4.90909H203.837V18H201.825ZM202.848 2.72727C202.456 2.72727 202.118 2.59375 201.834 2.3267C201.555 2.05966 201.416 1.73864 201.416 1.36364C201.416 0.988636 201.555 0.667614 201.834 0.400568C202.118 0.133523 202.456 0 202.848 0C203.24 0 203.575 0.133523 203.854 0.400568C204.138 0.667614 204.28 0.988636 204.28 1.36364C204.28 1.73864 204.138 2.05966 203.854 2.3267C203.575 2.59375 203.24 2.72727 202.848 2.72727ZM216.793 7.84091L214.987 8.35227C214.873 8.05114 214.705 7.75852 214.484 7.47443C214.268 7.18466 213.972 6.94602 213.597 6.75852C213.222 6.57102 212.742 6.47727 212.157 6.47727C211.356 6.47727 210.688 6.66193 210.154 7.03125C209.626 7.39489 209.362 7.85795 209.362 8.42045C209.362 8.92045 209.543 9.31534 209.907 9.60511C210.271 9.89489 210.839 10.1364 211.612 10.3295L213.555 10.8068C214.725 11.0909 215.597 11.5256 216.171 12.1108C216.745 12.6903 217.032 13.4375 217.032 14.3523C217.032 15.1023 216.816 15.7727 216.384 16.3636C215.958 16.9545 215.362 17.4205 214.594 17.7614C213.827 18.1023 212.935 18.2727 211.918 18.2727C210.583 18.2727 209.478 17.983 208.603 17.4034C207.728 16.8239 207.174 15.9773 206.941 14.8636L208.85 14.3864C209.032 15.0909 209.376 15.6193 209.881 15.9716C210.393 16.3239 211.06 16.5 211.884 16.5C212.822 16.5 213.566 16.3011 214.117 15.9034C214.674 15.5 214.952 15.017 214.952 14.4545C214.952 14 214.793 13.6193 214.475 13.3125C214.157 13 213.668 12.767 213.009 12.6136L210.827 12.1023C209.629 11.8182 208.748 11.3778 208.185 10.7812C207.629 10.179 207.35 9.42614 207.35 8.52273C207.35 7.78409 207.558 7.13068 207.972 6.5625C208.393 5.99432 208.964 5.5483 209.685 5.22443C210.413 4.90057 211.237 4.73864 212.157 4.73864C213.452 4.73864 214.469 5.02273 215.208 5.59091C215.952 6.15909 216.481 6.90909 216.793 7.84091ZM222.071 0.545454V18H220.06V0.545454H222.071ZM231.244 18.2727C229.982 18.2727 228.894 17.9943 227.979 17.4375C227.07 16.875 226.369 16.0909 225.874 15.0852C225.386 14.0739 225.141 12.8977 225.141 11.5568C225.141 10.2159 225.386 9.03409 225.874 8.01136C226.369 6.98295 227.056 6.18182 227.937 5.60795C228.823 5.02841 229.857 4.73864 231.039 4.73864C231.721 4.73864 232.394 4.85227 233.059 5.07954C233.724 5.30682 234.329 5.67614 234.874 6.1875C235.42 6.69318 235.854 7.36364 236.178 8.19886C236.502 9.03409 236.664 10.0625 236.664 11.2841V12.1364H226.573V10.3977H234.619C234.619 9.65909 234.471 9 234.175 8.42045C233.886 7.84091 233.471 7.38352 232.931 7.0483C232.397 6.71307 231.766 6.54545 231.039 6.54545C230.238 6.54545 229.545 6.74432 228.96 7.14205C228.38 7.53409 227.934 8.04545 227.621 8.67614C227.309 9.30682 227.153 9.98295 227.153 10.7045V11.8636C227.153 12.8523 227.323 13.6903 227.664 14.3778C228.011 15.0597 228.491 15.5795 229.104 15.9375C229.718 16.2898 230.431 16.4659 231.244 16.4659C231.772 16.4659 232.249 16.392 232.675 16.2443C233.107 16.0909 233.479 15.8636 233.792 15.5625C234.104 15.2557 234.346 14.875 234.516 14.4205L236.46 14.9659C236.255 15.625 235.911 16.2045 235.428 16.7045C234.945 17.1989 234.349 17.5852 233.638 17.8636C232.928 18.1364 232.13 18.2727 231.244 18.2727ZM239.724 18V4.90909H241.667V6.88636H241.803C242.042 6.23864 242.474 5.71307 243.099 5.30966C243.724 4.90625 244.428 4.70454 245.212 4.70454C245.36 4.70454 245.545 4.70739 245.766 4.71307C245.988 4.71875 246.156 4.72727 246.269 4.73864V6.78409C246.201 6.76705 246.045 6.74148 245.8 6.70739C245.562 6.66761 245.309 6.64773 245.042 6.64773C244.406 6.64773 243.837 6.78125 243.337 7.0483C242.843 7.30966 242.451 7.6733 242.161 8.1392C241.877 8.59943 241.735 9.125 241.735 9.71591V18H239.724ZM248.653 18V4.90909H250.665V18H248.653ZM249.676 2.72727C249.284 2.72727 248.946 2.59375 248.662 2.3267C248.384 2.05966 248.244 1.73864 248.244 1.36364C248.244 0.988636 248.384 0.667614 248.662 0.400568C248.946 0.133523 249.284 0 249.676 0C250.068 0 250.403 0.133523 250.682 0.400568C250.966 0.667614 251.108 0.988636 251.108 1.36364C251.108 1.73864 250.966 2.05966 250.682 2.3267C250.403 2.59375 250.068 2.72727 249.676 2.72727Z" fill="black"/>
</svg>
